<?xml version="1.0" encoding="UTF-8"?>
<svg xmlns="http://www.w3.org/2000/svg" xmlns:xlink="http://www.w3.org/1999/xlink" viewBox="0 0 840 840">
  <defs>
    <style>
      .e {
        fill: #f0f0f0;
      }

      .f {
        fill: #fff;
      }

      .g {
        fill: #202020;
      }

      .h {
        filter: url(#c);
      }
    </style>
    <filter id="c" data-name="drop-shadow-1" filterUnits="userSpaceOnUse">
      <feOffset dx="0" dy="12"/>
      <feGaussianBlur result="d" stdDeviation="28"/>
      <feFlood flood-color="#000" flood-opacity=".5"/>
      <feComposite in2="d" operator="in"/>
      <feComposite in="SourceGraphic"/>
    </filter>
  </defs>
  <g id="a" data-name="Camada 1">
    <rect class="g" width="840" height="840" rx="185.4" ry="185.4"/>
  </g>
  <g id="b" data-name="Camada 3">
    <g class="h">
      <path class="f" d="M579.93,259.27l-26.22-26.22c-12.32-12.04-24.52-16.43-36.58-12.19-.46,.16-.88,.43-1.22,.78l-143.88,143.88-50.02,70.99c18.01,10.49,31.08,23.45,44.37,36.3l213.54-213.54Z"/>
      <path class="e" d="M579.93,259.27l26.22,26.22c12.04,12.32,16.43,24.52,12.19,36.58-.16,.46-.43,.88-.78,1.22l-143.88,143.88-70.99,50.02c-10.49-18.01-23.45-31.08-36.3-44.37l213.54-213.54Z"/>
      <path class="e" d="M576.47,374.06l-29.31,29.31-11.6,253.61,5.86-5.86c.35-.35,.6-.78,.74-1.26,10.46-38.49,25.04-160.6,39.16-273.43,.34-2.7-2.93-4.29-4.85-2.37Z"/>
      <path class="f" d="M533.14,659.39l11.29-253.3-62.92,62.92,25.53,209.95c.29,2.36,3.17,3.35,4.85,1.67l21.25-21.25Z"/>
      <path class="e" d="M480.3,470.22l21.38,173.84-36.82-111.97c-.34-1.05-.38-2.18-.1-3.24l15.54-58.63Z"/>
      <path class="e" d="M465.15,262.73l-29.31,29.31-253.61,11.6,5.86-5.86c.35-.35,.78-.6,1.26-.74,38.49-10.46,160.6-25.04,273.43-39.16,2.7-.34,4.29,2.93,2.37,4.85Z"/>
      <path class="f" d="M179.81,306.06l253.3-11.29-62.92,62.92-209.95-25.53c-2.36-.29-3.35-3.17-1.67-4.85l21.25-21.25Z"/>
      <path class="e" d="M368.98,358.9l-173.84-21.38,111.97,36.82c1.05,.34,2.18,.38,3.24,.1l58.63-15.54Z"/>
      <path class="f" d="M474.12,470.92l-69.46,48.49c6.12,12.4-5.21,36.96-9.84,64.17-.47,2.77,2.95,4.47,4.89,2.44l58.26-61.14c.64-.67,1.1-1.48,1.35-2.36l14.81-51.6Z"/>
      <path class="f" d="M368.61,365.42l-48.49,69.46c-12.4-6.12-36.96,5.21-64.17,9.84-2.77,.47-4.47-2.95-2.44-4.89l61.14-58.26c.67-.64,1.48-1.1,2.36-1.35l51.6-14.81Z"/>
      <path class="f" d="M363.6,475.6c-14.38-14.66-29.5-28.03-44.43-35.03-62.48,80.94-121.46,159.33-100.05,179.51l144.49-144.49Z"/>
      <path class="e" d="M363.6,475.6c14.66,14.38,28.03,29.5,35.03,44.43-80.94,62.48-159.33,121.46-179.51,100.05l144.49-144.49Z"/>
      <path class="e" d="M680.17,161.65c-.06-.69-.36-1.32-.83-1.79l-91.66,91.66c17.88,17.78,31.58,33.14,41.2,47.62,.99,1.5,3.11,1.71,4.38,.43,24.34-24.44,52.27-71.34,46.91-137.92Z"/>
      <path class="f" d="M677.55,159.03c.69,.06,1.32,.36,1.79,.83l-91.66,91.66c-17.78-17.88-33.14-31.58-47.62-41.2-1.5-.99-1.71-3.11-.43-4.38,24.44-24.34,71.34-52.27,137.92-46.91Z"/>
      <path class="e" d="M253.21,443.63c.55,.74,1.44,1.22,2.51,1.11l.84-.13c26.97-4.7,51.26-15.81,63.56-9.73l40.09-57.44-107.01,66.19Z"/>
      <path class="e" d="M396.04,586.45c-.74-.55-1.22-1.44-1.11-2.51l.13-.84c4.7-26.97,15.81-51.26,9.73-63.56l57.44-40.09-66.19,107.01Z"/>
    </g>
  </g>
</svg>